<?xml version="1.0" encoding="UTF-8" standalone="no"?>
<svg
   xmlns:dc="http://purl.org/dc/elements/1.1/"
   xmlns:cc="http://creativecommons.org/ns#"
   xmlns:rdf="http://www.w3.org/1999/02/22-rdf-syntax-ns#"
   xmlns:svg="http://www.w3.org/2000/svg"
   xmlns="http://www.w3.org/2000/svg"
   xmlns:xlink="http://www.w3.org/1999/xlink"
   xmlns:sodipodi="http://sodipodi.sourceforge.net/DTD/sodipodi-0.dtd"
   xmlns:inkscape="http://www.inkscape.org/namespaces/inkscape"
   width="118.99107mm"
   height="118.99107mm"
   viewBox="0 0 118.99106 118.99107"
   version="1.1"
   id="svg912"
   sodipodi:docname="gear.svg"
   inkscape:export-filename="/Users/bbarringer/workspace/commander-spellbook-site-v2/assets/images/gear.png"
   inkscape:export-xdpi="96"
   inkscape:export-ydpi="96"
   inkscape:version="1.0.2 (e86c8708, 2021-01-15)">
  <defs
     id="defs906">
    <linearGradient
       inkscape:collect="always"
       id="linearGradient873">
      <stop
         style="stop-color:#c18aff;stop-opacity:1"
         offset="0"
         id="stop869" />
      <stop
         style="stop-color:#ff9595;stop-opacity:1"
         offset="1"
         id="stop871" />
    </linearGradient>
    <linearGradient
       inkscape:collect="always"
       xlink:href="#linearGradient873"
       id="linearGradient875"
       x1="17.082306"
       y1="72.930527"
       x2="136.07336"
       y2="72.930527"
       gradientUnits="userSpaceOnUse"
       gradientTransform="translate(0,26.458334)" />
  </defs>
  <sodipodi:namedview
     id="base"
     pagecolor="#ffffff"
     bordercolor="#666666"
     borderopacity="1.0"
     inkscape:pageopacity="0.0"
     inkscape:pageshadow="2"
     inkscape:zoom="1.7365137"
     inkscape:cx="138.64025"
     inkscape:cy="201.08972"
     inkscape:document-units="mm"
     inkscape:current-layer="layer1"
     inkscape:document-rotation="0"
     showgrid="false"
     inkscape:window-width="1920"
     inkscape:window-height="1035"
     inkscape:window-x="0"
     inkscape:window-y="23"
     inkscape:window-maximized="0"
     fit-margin-top="0"
     fit-margin-left="0"
     fit-margin-right="0"
     fit-margin-bottom="0"
     units="in" />
  <metadata
     id="metadata909">
    <rdf:RDF>
      <cc:Work
         rdf:about="">
        <dc:format>image/svg+xml</dc:format>
        <dc:type
           rdf:resource="http://purl.org/dc/dcmitype/StillImage" />
        <dc:title></dc:title>
        <dc:title />
      </cc:Work>
    </rdf:RDF>
  </metadata>
  <g
     inkscape:label="Layer 1"
     inkscape:groupmode="layer"
     id="layer1"
     transform="translate(-17.082306,-40.31663)">
    <path
       d="m 131.13639,93.270365 a 30.400625,30.400625 0 0 0 -3.17499,-8.81592 l 0.0317,0.0185 1.88647,-5.06413 -2.8231,-2.81781 -2.82046,-2.82046 -4.26773,1.5875 a 25.222729,25.222729 0 0 0 -9.48531,-4.26773 l -1.97379,-4.31535 h -7.97455 l -2.172228,4.7625 a 29.70477,29.70477 0 0 0 -8.78681,4.37885 l -5.02709,-1.87589 -2.8231,2.81517 -2.81781,2.81781 1.64041,4.41325 c -0.59531,0.69585 -1.17475,1.41552 -1.7436,2.14312 v 0.0318 l 6.10129,9.82663 a 52.093812,52.093812 0 0 1 5.21494,-6.28121 l 0.12435,-0.12435 c 0.22225,-0.22225 0.44715,-0.44186 0.67469,-0.66146 l 0.44186,-0.41804 a 38.13175,38.13175 0 0 1 3.00831,-2.54794 c 2.57439,-1.95792 5.23875,-3.22527 7.868718,-3.81 l 0.29368,-0.0582 c 0.18257,-0.037 0.36513,-0.0635 0.54769,-0.0953 a 14.911916,14.911916 0 0 1 10.97227,2.61673 c 0.20373,0.14816 0.40746,0.29104 0.60854,0.45243 0.09,0.0688 0.17727,0.14288 0.26459,0.21432 6.51139,5.43718 8.29998,14.938365 4.23333,22.682735 a 17.592146,17.592146 0 0 1 -3.86821,4.99533 l -0.0556,0.0503 c -0.0688,0.0609 -0.14288,0.11906 -0.21431,0.17992 a 15.038916,15.038916 0 0 1 -2.44211,1.66158 15.345833,15.345833 0 0 1 -5.73087,1.85208 15.126229,15.126229 0 0 1 -8.421698,-1.69598 c -2.76754,-1.42875 -5.1779,-3.72004 -7.67292,-5.71764 -0.38629,-0.30692 -0.75935,-0.635 -1.13241,-0.97102 -2.57969,-2.72521 -4.79425,-5.80233 -6.87917,-9.022305 h -0.0318 l -6.20713,-10.01977 v 0.0159 a 61.936312,61.936312 0 0 0 -3.93965,-5.14879 l 1.70657,-4.572 -2.82046,-2.80987 -2.807232,-2.82046 -5.064125,1.88912 0.111125,0.18257 a 30.297437,30.297437 0 0 0 -8.54075,-4.41854 v 0 l -2.243667,-4.91332 h -7.974541 l -1.928813,4.23334 a 25.135416,25.135416 0 0 0 -9.771062,4.20952 l -4.556125,-1.69863 -2.820458,2.80723 -2.817813,2.81781 1.889125,5.06413 0.359833,-0.21961 a 30.273625,30.273625 0 0 0 -3.439583,9.23925 l -4.7625,2.17223 v 7.974535 l 4.7625,2.17489 a 30.083125,30.083125 0 0 0 3.439583,9.24719 l -0.378354,-0.23019 -1.889125,5.06412 2.817813,2.81783 2.820458,2.82046 4.60375,-1.71715 a 25.357666,25.357666 0 0 0 2.3495,1.45256 l 0.529167,0.29104 0.264583,0.1323 a 24.847021,24.847021 0 0 0 6.574896,2.27012 l 1.965854,4.30478 h 7.974541 l 2.230438,-4.90274 -0.06615,-0.0159 a 29.532791,29.532791 0 0 0 8.598958,-4.40796 l -0.116416,0.18786 5.077354,1.87589 2.820456,-2.82045 2.82046,-2.81783 -1.72773,-4.63021 c 0.5424,-0.62706 1.05834,-1.27264 1.5875,-1.92881 l -6.140978,-9.86367 a 52.368979,52.368979 0 0 1 -4.651375,5.73088 c -0.373062,0.33602 -0.746125,0.6641 -1.132417,0.97102 -2.505604,1.99761 -4.915958,4.2889 -7.672916,5.71765 a 15.120937,15.120937 0 0 1 -8.421688,1.69598 15.345833,15.345833 0 0 1 -5.730874,-1.85209 15.038916,15.038916 0 0 1 -2.442105,-1.66158 c -0.07144,-0.0609 -0.142875,-0.11642 -0.214312,-0.17992 l -0.05821,-0.0503 a 17.584208,17.584208 0 0 1 -3.870855,-5.00062 c -4.061354,-7.74437 -2.270125,-17.245545 4.233334,-22.682735 0.08467,-0.0714 0.169333,-0.14288 0.264583,-0.21167 0.201083,-0.16139 0.407458,-0.30692 0.613833,-0.45508 a 14.914562,14.914562 0 0 1 10.972271,-2.61673 c 0.182563,0.0318 0.365125,0.0582 0.547688,0.0952 l 0.293687,0.0582 c 2.629958,0.58473 5.291667,1.85208 7.868708,3.81 a 38.13175,38.13175 0 0 1 3.008313,2.54794 c 0.145521,0.13758 0.293687,0.26458 0.441854,0.41804 0.227542,0.2196 0.452437,0.43921 0.674687,0.66146 l 0.124355,0.12435 c 2.801937,2.84956 5.206999,6.08542 7.408333,9.525 l 6.230934,10.048885 a 61.952187,61.952187 0 0 0 4.26774,5.47158 l -1.5875,4.2545 2.82046,2.81782 2.82045,2.82046 4.8604,-1.8124 a 28.889854,28.889854 0 0 0 8.67304,4.27302 l 2.190748,4.8022 h 7.97455 l 2.01348,-4.40797 a 24.971375,24.971375 0 0 0 6.02985,-2.16693 l 0.26459,-0.1323 0.52916,-0.29104 a 25.693687,25.693687 0 0 0 2.57175,-1.60866 l 4.31271,1.60866 2.82045,-2.82046 2.8178,-2.81782 -1.88647,-5.06412 -0.0476,0.0265 a 30.1625,30.1625 0 0 0 3.19351,-8.83179 l 0.0291,0.12435 4.91596,-2.24632 v -7.971895 l -4.91066,-2.24631 z"
       id="path77"
       style="fill:url(#linearGradient875);fill-opacity:1;stroke-width:0.264583" />
  </g>
</svg>
