<?xml version="1.0" encoding="iso-8859-1"?>
<!-- Uploaded to: SVG Repo, www.svgrepo.com, Generator: SVG Repo Mixer Tools -->
<!DOCTYPE svg PUBLIC "-//W3C//DTD SVG 1.1//EN" "http://www.w3.org/Graphics/SVG/1.1/DTD/svg11.dtd">
<svg fill="#444444" version="1.1" id="Capa_1" xmlns="http://www.w3.org/2000/svg"
	xmlns:xlink="http://www.w3.org/1999/xlink"
	width="800px" height="800px" viewBox="0 0 574.65 574.65"
	xml:space="preserve">
<g>
	<g>
		<path d="M424.94,217.315v-79.656C424.94,61.755,363.185,0,287.291,0S149.658,61.739,149.658,137.623v79.742
			c-41.326,28.563-68.46,76.238-68.46,130.287v162.264c0,35.748,28.986,64.734,64.733,64.734h282.787
			c35.748,0,64.734-28.986,64.734-64.734V347.652C493.456,293.574,466.306,245.892,424.94,217.315z M322.136,421.457v49.314
			c0,19.221-15.577,34.811-34.808,34.811c-19.23,0-34.829-15.59-34.829-34.83v-49.283c-14.155-10.627-23.441-27.385-23.441-46.447
			c0-32.174,26.102-58.254,58.252-58.254c32.173,0,58.255,26.084,58.255,58.254C345.563,394.084,336.276,410.832,322.136,421.457z
			 M348.241,189.969c-4.344-0.357-8.707-0.665-13.145-0.665h-95.538c-4.456,0-8.837,0.308-13.201,0.665v-52.346
			c0-33.595,27.338-60.922,60.933-60.922c33.612,0,60.95,27.348,60.95,60.959V189.969L348.241,189.969z"/>
	</g>
</g>
</svg>