<?xml version="1.0" encoding="UTF-8" standalone="no"?>
<svg
   xmlns:dc="http://purl.org/dc/elements/1.1/"
   xmlns:cc="http://creativecommons.org/ns#"
   xmlns:rdf="http://www.w3.org/1999/02/22-rdf-syntax-ns#"
   xmlns:svg="http://www.w3.org/2000/svg"
   xmlns="http://www.w3.org/2000/svg"
   id="Layer_1"
   data-name="Layer 1"
   viewBox="0 0 2041.5702 597.77"
   version="1.1"
   width="2041.5702"
   height="597.77002">
  <metadata
     id="metadata2258">
    <rdf:RDF>
      <cc:Work
         rdf:about="">
        <dc:format>image/svg+xml</dc:format>
        <dc:type
           rdf:resource="http://purl.org/dc/dcmitype/StillImage" />
        <dc:title></dc:title>
      </cc:Work>
    </rdf:RDF>
  </metadata>
  <defs
     id="defs2256" />
  <path
     d="m 2.1969081e-4,237.7 q 0,-95.25 95.00000030919,-95.25 95.26,0 95.26,95.25 v 62.6 h -73.4 v -62.6 q 0,-24.69 -21.6,-24.91 h -0.45 q -21.38,0 -21.38,24.91 v 39.25 q 0,26.89 56.44,67.47 60.42,43 60.42,103.19 v 54.69 q 0,95.47 -95,95.47 Q 2.1969081e-4,597.55 2.1969081e-4,502.3 V 439.67 H 73.43022 v 62.63 q 0,24.91 21.83,24.92 21.6,0 21.6,-24.92 v -49.4 q 0,-29.33 -56.44,-69.9 Q 2.1969081e-4,340.01 2.1969081e-4,278.3 Z"
     id="path2217"
     style="fill:#222222;fill-opacity:1" />
  <path
     d="m 243.21022,149.3 h 96.36 q 88.64,0.22 88.64,95.47 v 65.03 q 0,69.9 -63.28,90.62 -15.23,4.88 -43.67,4.88 h -4.63 v 185.41 h -73.42 z m 73.42,70.34 v 115.07 h 8.82 c 7.94,0 13.08,-0.43 15.43,-1.32 q 13.89,-5.5 13.89,-23.59 v -65.05 q 0,-25.12 -21.6,-25.13 z"
     id="path2219"
     style="fill:#222222;fill-opacity:1" />
  <path
     d="m 474.50022,149.3 h 172.87 v 70.34 h -99.44 v 115.07 h 85.55 v 70.59 h -85.55 v 115.1 h 99.44 v 70.34 h -172.87 z"
     id="path2221"
     style="fill:#222222;fill-opacity:1" />
  <path
     d="M 693.67022,590.71 V 149.3 h 73.42 v 371.07 h 99.48 v 70.34 z"
     id="path2223"
     style="fill:#222222;fill-opacity:1" />
  <path
     d="M 904.02022,590.71 V 149.3 h 73.42 v 371.07 h 99.44998 v 70.34 z"
     id="path2225"
     style="fill:#222222;fill-opacity:1" />
  <path
     d="m 1114.3702,149.3 h 101.65 q 88.64,0.22 88.63,95.47 v 65.03 q 0,45 -29.54,60.2 29.55,15.21 29.54,60.19 v 65.26 q 0,95 -92.38,95.26 h -97.9 z m 73.42,70.34 v 115.07 h 14.12 c 7.93,0 13.08,-0.43 15.43,-1.32 q 13.89,-5.5 13.89,-23.59 v -65.05 q 0,-25.12 -21.61,-25.13 z m 0,185.65 v 115.1 h 21.83 q 21.62,0 21.61,-24.92 v -65.28 q 0,-18.08 -13.89,-23.37 -3.77,-1.52 -15.43,-1.52 z"
     id="path2227"
     style="fill:#222222;fill-opacity:1" />
  <path
     d="m 1541.2402,502.3 q 0,95.25 -95.25,95.47 -95,0 -95,-95.47 V 237.7 q 0,-95.25 95,-95.25 95.25,0 95.25,95.25 z m -73.42,-264.6 q 0,-24.69 -21.61,-24.91 h -0.44 q -21.39,0 -21.39,24.91 v 264.6 q 0,24.91 21.61,24.92 21.82,0 21.83,-24.92 z"
     id="path2229"
     style="fill:#222222;fill-opacity:1" />
  <path
     d="m 1780.0402,502.3 q 0,95.25 -95.26,95.47 -95,0 -95,-95.47 V 237.7 q 0,-95.25 95,-95.25 95.25,0 95.26,95.25 z m -73.47,-264.6 q 0,-24.69 -21.6,-24.91 h -0.4 q -21.37,0 -21.38,24.91 v 264.6 q 0,24.91 21.6,24.92 21.84,0 21.83,-24.92 z"
     id="path2231"
     style="fill:#222222;fill-opacity:1" />
  <path
     d="m 1957.3102,370 84.26,220.71 h -78.5 l -56.66,-175.95 v 176 h -73.42 V 149.3 h 73.42 v 175.27 l 56.63,-175.27 h 78.53 z"
     id="path2233"
     style="fill:#222222;fill-opacity:1" />
  <path
     d="m 73.47022,95.12 q 0,24.3 -36.78,24.36 Q -0.08978031,119.54 2.1969081e-4,95.12 V 24.3 Q 2.1969081e-4,0 36.69022,0 q 36.69,0 36.78,24.3 v 15.57 h -25.57 V 24.3 q 0,-7.79 -11.12,-7.84 h -0.21 q -11,0.04 -11,7.84 v 70.78 q 0,7.85 11.11,7.84 11.11,-0.01 11.21,-7.84 V 79.54 h 25.58 z"
     id="path2235"
     style="fill:#222222;fill-opacity:1" />
  <path
     d="m 307.51022,95.12 q 0,24.3 -36.78,24.36 -36.78,0.06 -36.69,-24.36 V 24.3 q 0,-24.3 36.69,-24.3 36.69,0 36.78,24.3 z m -25.58,-70.82 q 0,-7.79 -11.11,-7.84 h -0.18 q -11,0 -11,7.84 v 70.78 q 0,7.85 11.12,7.84 11.12,-0.01 11.2,-7.84 z"
     id="path2237"
     style="fill:#222222;fill-opacity:1" />
  <path
     d="m 526.45022,81.14 29.73,-79.27 h 25.58 v 115.72 h -24.49 V 52.65 l -21.87,64.94 h -17.35 l -22.48,-64.94 v 64.94 h -24.79 V 1.87 h 25.58 z"
     id="path2239"
     style="fill:#222222;fill-opacity:1" />
  <path
     d="m 802.51022,81.14 29.73,-79.27 h 25.58 v 115.72 h -24.49 V 52.65 l -21.88,64.94 h -17.35 l -22.53,-64.94 v 64.94 h -24.73 V 1.87 h 25.58 z"
     id="path2241"
     style="fill:#222222;fill-opacity:1" />
  <path
     d="m 1094.2002,76.54 8.31,41 h -25.84 l -5,-24.54 h -26.1 l -5,24.59 h -25.76 l 8.32,-40.88 18.07,-74.84 h 35.07 z m -25.85,0 -9.78,-48.13 -9.76,48.13 z"
     id="path2243"
     style="fill:#222222;fill-opacity:1" />
  <path
     d="m 1259.4602,1.87 h 25.58 l 24.22,67.12 V 1.87 h 23.67 v 115.72 h -25.57 l -23.32,-65 v 65 h -24.58 z"
     id="path2245"
     style="fill:#222222;fill-opacity:1" />
  <path
     d="m 1498.0202,1.87 h 39.4 q 34.07,0.06 34.07,24.36 V 93.3 q 0,24.24 -35.7,24.3 h -37.77 z m 25.55,16.43 v 82.81 h 11.21 q 11.12,0 11.11,-7.84 V 26.23 q 0,-7.91 -11.11,-7.91 z"
     id="path2247"
     style="fill:#222222;fill-opacity:1" />
  <path
     d="m 1734.7602,1.87 h 66.33 V 18.3 h -40.75 v 33.15 h 35.06 v 16.51 h -35.06 v 33.15 h 40.75 v 16.46 h -66.33 z"
     id="path2249"
     style="fill:#222222;fill-opacity:1" />
  <path
     d="m 1961.6602,1.87 h 37.23 q 34.07,0.06 34.07,24.36 v 17.4 q 0,15.27 -20.15,20.11 l 28.76,53.85 h -28 l -23,-50.9 -3.26,0.29 v 50.61 h -25.57 z m 25.57,16.43 v 33.15 h 5.88 a 37.61,37.61 0 0 0 7.31,-0.47 q 7,-1.83 7,-7.37 V 26.23 q 0,-7.91 -11.11,-7.91 z"
     id="path2251"
     style="fill:#222222;fill-opacity:1" />
</svg>
