<?xml version="1.0" encoding="UTF-8" standalone="no"?>
<svg
   xmlns:dc="http://purl.org/dc/elements/1.1/"
   xmlns:cc="http://creativecommons.org/ns#"
   xmlns:rdf="http://www.w3.org/1999/02/22-rdf-syntax-ns#"
   xmlns:svg="http://www.w3.org/2000/svg"
   xmlns="http://www.w3.org/2000/svg"
   xmlns:sodipodi="http://sodipodi.sourceforge.net/DTD/sodipodi-0.dtd"
   xmlns:inkscape="http://www.inkscape.org/namespaces/inkscape"
   id="Layer_1"
   data-name="Layer 1"
   viewBox="0 0 568.92997 597.74339"
   version="1.1"
   width="568.92999"
   height="597.74341"
   sodipodi:docname="logo.svg"
   inkscape:version="1.0.2 (e86c8708, 2021-01-15)">
  <sodipodi:namedview
     pagecolor="#ffffff"
     bordercolor="#666666"
     borderopacity="1"
     objecttolerance="10"
     gridtolerance="10"
     guidetolerance="10"
     inkscape:pageopacity="0"
     inkscape:pageshadow="2"
     inkscape:window-width="1775"
     inkscape:window-height="1035"
     id="namedview893"
     showgrid="false"
     inkscape:zoom="1.1741339"
     inkscape:cx="284.465"
     inkscape:cy="298.8717"
     inkscape:window-x="0"
     inkscape:window-y="23"
     inkscape:window-maximized="0"
     inkscape:current-layer="Layer_1" />
  <metadata
     id="metadata82">
    <rdf:RDF>
      <cc:Work
         rdf:about="">
        <dc:format>image/svg+xml</dc:format>
        <dc:type
           rdf:resource="http://purl.org/dc/dcmitype/StillImage" />
        <dc:title />
      </cc:Work>
    </rdf:RDF>
  </metadata>
  <defs
     id="defs67">
    <style
       id="style65">.cls-1{fill:#231f20;}</style>
  </defs>
  <path
     d="m 284.43,490.74629 -284.41,84.70709 -0.02,8.2 h 0.24 l 19.45,14.09 227.56,-16.53 c -9.45,13.38 0,16.53 0,16.53 h 74.42 c 0,0 9.45,-3.15 0,-16.53 l 227.56,16.51 19.45,-14.09 0.02,-8.02 z"
     id="path75-5"
     style="fill:#ffffff;fill-opacity:1" />
  <path
     d="m 568.92,575.45338 v 0 l -59.19,-520.989996 -0.99,-13.82 v 0.63 l -6.88353,7.956916 c -66.52,-11.93 -85.74478,-38.338458 -128.75478,-43.598458 -63.29,-7.74 -89.15169,30.281542 -89.15169,30.281542 0,0 -23.49662,-37.1698504 -86.78662,-29.4298504 C 154.16338,11.743534 124.42,42.563384 59.19,54.503384 v 0 L 0.019996,575.45338 v 0 0 l 2.5550748,-21.11229 14.8149252,19.68229 c 78.860004,-12.19 112.290004,-34.6 162.780004,-39.86 74.32,-7.74 103.8,19.76 103.8,19.76 0,0 29.47,-27.5 103.8,-19.76 50.49,5.26 84,27.67 163.8,39.86 l 17.13,1.59 h 0.23 l -17.36,-1.59 z m -181.17,-53 c -274.21333,-389.46 -137.10667,-194.73 0,0 z"
     id="path73-4"
     style="fill:#ffffff;fill-opacity:1"
     sodipodi:nodetypes="cccccccccccccccccccccccccc" />
  <polygon
     class="cls-1"
     points="592.48,659.39 592.25,659.44 592.49,659.46 "
     id="polygon69"
     transform="translate(-23.57,-61.736616)" />
  <path
     d="m 18.37,562.18338 0.09,-1 h -0.09 z"
     id="path71" />
  <path
     d="m 568.92,575.45338 v 0 l -44.49,-520.739996 -15.69,-14.07 v 0.63 l -0.07,-0.56 c -66.52,-11.93 -93.41,-34.08 -136.42,-39.34 -63.29,-7.74 -88.39,19.76 -88.39,19.76 0,0 -25.11,-27.5 -88.4,-19.76 -43,5.26 -70.18,27.33 -135.41,39.27 l -15.62,14.07 L 0.02,575.45338 v 0 0 0.18 l 17.37,-1.61 c 78.86,-12.19 112.29,-34.6 162.78,-39.86 74.32,-7.74 103.8,19.76 103.8,19.76 0,0 29.47,-27.5 103.8,-19.76 50.49,5.26 84,27.67 163.8,39.86 l 17.13,1.59 h 0.23 v -0.11 z m -181.17,-53 c -74.33,-7.75 -103.8,19.76 -103.8,19.76 0,0 -29.52,-27.55 -103.8,-19.8 -50.48,5.25 -82.86,26.57 -161.72,38.76 l -0.09,1 v -1 h 0.09 L 59.19,54.503384 c 65,-11.94 93.43,-36.1 136.36,-41.35 63.29,-7.75 88.4,22.76 88.4,22.76 0,0 25.1,-30.51 88.39,-22.76 42.88,5.24 71.3,29.35 137.39,41.31 l 40.86,506.529996 c -79.79,-12.19 -112.36,-33.33 -162.84,-38.58 z"
     id="path73"
     style="fill:#222222;fill-opacity:1" />
  <path
     d="m 284.43,560.26338 -267.06,21.78 -17.37,1.61 h 0.24 l 19.45,14.09 227.56,-16.53 c -9.45,13.38 0,16.53 0,16.53 h 74.42 c 0,0 9.45,-3.15 0,-16.53 l 227.56,16.51 19.45,-14.09 -17.13,-1.59 z"
     id="path75"
     style="fill:#222222;fill-opacity:1" />
  <path
     d="m 490.63,258.40338 a 114.9,114.9 0 0 0 -12,-33.32 l 0.12,0.07 7.13,-19.14 -10.67,-10.65 -10.66,-10.66 -16.13,6 a 95.33,95.33 0 0 0 -35.85,-16.13 l -7.46,-16.31 h -30.14 l -8.21,18 a 112.27,112.27 0 0 0 -33.21,16.55 l -19,-7.09 -10.67,10.64 -10.65,10.65 6.2,16.68 c -2.25,2.63 -4.44,5.35 -6.59,8.1 v 0.12 l 23.06,37.14 a 196.89,196.89 0 0 1 19.71,-23.74 l 0.47,-0.47 c 0.84,-0.84 1.69,-1.67 2.55,-2.5 l 1.67,-1.58 a 144.12,144.12 0 0 1 11.37,-9.63 c 9.73,-7.4 19.8,-12.19 29.74,-14.4 l 1.11,-0.22 c 0.69,-0.14 1.38,-0.24 2.07,-0.36 a 56.36,56.36 0 0 1 41.47,9.89 c 0.77,0.56 1.54,1.1 2.3,1.71 0.34,0.26 0.67,0.54 1,0.81 24.61,20.55 31.37,56.46 16,85.73 a 66.49,66.49 0 0 1 -14.62,18.88 l -0.21,0.19 c -0.26,0.23 -0.54,0.45 -0.81,0.68 a 56.84,56.84 0 0 1 -9.23,6.28 58,58 0 0 1 -21.66,7 57.17,57.17 0 0 1 -31.83,-6.41 c -10.46,-5.4 -19.57,-14.06 -29,-21.61 -1.46,-1.16 -2.87,-2.4 -4.28,-3.67 -9.75,-10.3 -18.12,-21.93 -26,-34.1 h -0.12 l -23.46,-37.87 v 0.06 a 234.09,234.09 0 0 0 -14.89,-19.46 l 6.45,-17.28 -10.66,-10.62 -10.61,-10.66 -19.14,7.14 0.42,0.69 a 114.51,114.51 0 0 0 -32.28,-16.7 v 0 l -8.48,-18.57 h -30.14 l -7.29,16 a 95,95 0 0 0 -36.93,15.91 l -17.22,-6.42 -10.66,10.61 -10.65,10.65 7.14,19.14 1.36,-0.83 a 114.42,114.42 0 0 0 -13,34.92 l -18,8.21 v 30.14 l 18,8.22 a 113.7,113.7 0 0 0 13,34.95 l -1.43,-0.87 -7.14,19.14 10.65,10.65 10.66,10.66 17.4,-6.49 a 95.84,95.84 0 0 0 8.88,5.49 l 2,1.1 1,0.5 a 93.91,93.91 0 0 0 24.85,8.58 l 7.43,16.27 H 195 l 8.43,-18.53 -0.25,-0.06 a 111.62,111.62 0 0 0 32.5,-16.66 l -0.44,0.71 19.19,7.09 10.66,-10.66 10.66,-10.65 -6.53,-17.5 c 2.05,-2.37 4,-4.81 6,-7.29 l -23.21,-37.28 a 197.93,197.93 0 0 1 -17.58,21.66 c -1.41,1.27 -2.82,2.51 -4.28,3.67 -9.47,7.55 -18.58,16.21 -29,21.61 a 57.15,57.15 0 0 1 -31.83,6.41 58,58 0 0 1 -21.66,-7 56.84,56.84 0 0 1 -9.23,-6.28 c -0.27,-0.23 -0.54,-0.44 -0.81,-0.68 l -0.22,-0.19 a 66.46,66.46 0 0 1 -14.63,-18.9 c -15.35,-29.27 -8.58,-65.18 16,-85.73 0.32,-0.27 0.64,-0.54 1,-0.8 0.76,-0.61 1.54,-1.16 2.32,-1.72 a 56.37,56.37 0 0 1 41.47,-9.89 c 0.69,0.12 1.38,0.22 2.07,0.36 l 1.11,0.22 c 9.94,2.21 20,7 29.74,14.4 a 144.12,144.12 0 0 1 11.37,9.63 c 0.55,0.52 1.11,1 1.67,1.58 0.86,0.83 1.71,1.66 2.55,2.5 l 0.47,0.47 c 10.59,10.77 19.68,23 28,36 l 23.55,37.98 a 234.15,234.15 0 0 0 16.13,20.68 l -6,16.08 10.66,10.65 10.66,10.66 18.37,-6.85 a 109.19,109.19 0 0 0 32.78,16.15 l 8.28,18.15 h 30.14 l 7.61,-16.66 a 94.38,94.38 0 0 0 22.79,-8.19 l 1,-0.5 2,-1.1 a 97.11,97.11 0 0 0 9.72,-6.08 l 16.3,6.08 10.66,-10.66 10.65,-10.65 -7.13,-19.14 -0.18,0.1 a 114,114 0 0 0 12.07,-33.38 l 0.11,0.47 18.58,-8.49 v -30.13 l -18.56,-8.49 z"
     id="path77"
     style="fill:#222222;fill-opacity:1" />
</svg>
