<svg id="Layer_1" data-name="Layer 1" xmlns="http://www.w3.org/2000/svg" viewBox="0 0 635.9 710.71"><defs><style>.cls-1{fill:#231f20;}</style></defs><polygon class="cls-1" points="592.25 659.44 592.49 659.46 592.48 659.39 592.25 659.44"/><path d="M41.94,623.92l.09-1h-.09Z"/><path d="M592.49,637.19h0L548,116.45l-15.69-14.07,0,.63-.07-.56c-66.52-11.93-93.41-34.08-136.42-39.34-63.29-7.74-88.39,19.76-88.39,19.76s-25.11-27.5-88.4-19.76c-43,5.26-70.18,27.33-135.41,39.27L68,116.45,23.59,637.19h0l0,0,0,.18,17.37-1.61c78.86-12.19,112.29-34.6,162.78-39.86,74.32-7.74,103.8,19.76,103.8,19.76s29.47-27.5,103.8-19.76c50.49,5.26,84,27.67,163.8,39.86l17.13,1.59.23,0v-.11Zm-181.17-53c-74.33-7.75-103.8,19.76-103.8,19.76S278,576.4,203.72,584.15C153.24,589.4,120.86,610.72,42,622.91l-.09,1v-1H42L82.76,116.24c65-11.94,93.43-36.1,136.36-41.35,63.29-7.75,88.4,22.76,88.4,22.76s25.1-30.51,88.39-22.76c42.88,5.24,71.3,29.35,137.39,41.31l40.86,506.53C494.37,610.54,461.8,589.4,411.32,584.15Z"/><path d="M308,622,40.94,643.78l-17.37,1.61.24,0,19.45,14.09,227.56-16.53c-9.45,13.38,0,16.53,0,16.53h74.42s9.45-3.15,0-16.53L572.8,659.46l19.45-14.09-17.13-1.59Z"/><path d="M514.2,320.14a114.9,114.9,0,0,0-12-33.32l.12.07,7.13-19.14L498.78,257.1l-10.66-10.66-16.13,6a95.33,95.33,0,0,0-35.85-16.13L428.68,220H398.54l-8.21,18a112.27,112.27,0,0,0-33.21,16.55l-19-7.09L327.45,258.1,316.8,268.75,323,285.43c-2.25,2.63-4.44,5.35-6.59,8.1l0,.12,23.06,37.14a196.89,196.89,0,0,1,19.71-23.74l.47-.47c.84-.84,1.69-1.67,2.55-2.5l1.67-1.58a144.12,144.12,0,0,1,11.37-9.63c9.73-7.4,19.8-12.19,29.74-14.4l1.11-.22c.69-.14,1.38-.24,2.07-.36a56.36,56.36,0,0,1,41.47,9.89c.77.56,1.54,1.1,2.3,1.71.34.26.67.54,1,.81,24.61,20.55,31.37,56.46,16,85.73a66.49,66.49,0,0,1-14.62,18.88l-.21.19c-.26.23-.54.45-.81.68a56.84,56.84,0,0,1-9.23,6.28,58,58,0,0,1-21.66,7,57.17,57.17,0,0,1-31.83-6.41c-10.46-5.4-19.57-14.06-29-21.61-1.46-1.16-2.87-2.4-4.28-3.67-9.75-10.3-18.12-21.93-26-34.1h-.12L307.71,305.4l0,.06A234.09,234.09,0,0,0,292.82,286l6.45-17.28L288.61,258.1,278,247.44l-19.14,7.14.42.69A114.51,114.51,0,0,0,227,238.57h0L218.52,220H188.38l-7.29,16a95,95,0,0,0-36.93,15.91l-17.22-6.42L116.28,256.1l-10.65,10.65,7.14,19.14,1.36-.83a114.42,114.42,0,0,0-13,34.92l-18,8.21v30.14l18,8.22a113.7,113.7,0,0,0,13,34.95l-1.43-.87-7.14,19.14,10.65,10.65,10.66,10.66,17.4-6.49a95.84,95.84,0,0,0,8.88,5.49l2,1.1,1,.5A93.91,93.91,0,0,0,181,450.26l7.43,16.27h30.14L227,448l-.25-.06a111.62,111.62,0,0,0,32.5-16.66l-.44.71L278,439.08l10.66-10.66,10.66-10.65-6.53-17.5c2.05-2.37,4-4.81,6-7.29L275.58,355.7A197.93,197.93,0,0,1,258,377.36c-1.41,1.27-2.82,2.51-4.28,3.67-9.47,7.55-18.58,16.21-29,21.61a57.15,57.15,0,0,1-31.83,6.41,58,58,0,0,1-21.66-7,56.84,56.84,0,0,1-9.23-6.28c-.27-.23-.54-.44-.81-.68l-.22-.19A66.46,66.46,0,0,1,146.34,376c-15.35-29.27-8.58-65.18,16-85.73.32-.27.64-.54,1-.8.76-.61,1.54-1.16,2.32-1.72a56.37,56.37,0,0,1,41.47-9.89c.69.12,1.38.22,2.07.36l1.11.22c9.94,2.21,20,7,29.74,14.4a144.12,144.12,0,0,1,11.37,9.63c.55.52,1.11,1,1.67,1.58.86.83,1.71,1.66,2.55,2.5l.47.47c10.59,10.77,19.68,23,28,36L307.66,381a234.15,234.15,0,0,0,16.13,20.68l-6,16.08,10.66,10.65,10.66,10.66,18.37-6.85a109.19,109.19,0,0,0,32.78,16.15l8.28,18.15h30.14l7.61-16.66a94.38,94.38,0,0,0,22.79-8.19l1-.5,2-1.1a97.11,97.11,0,0,0,9.72-6.08l16.3,6.08,10.66-10.66,10.65-10.65-7.13-19.14-.18.1a114,114,0,0,0,12.07-33.38l.11.47,18.58-8.49V328.19L514.3,319.7Z"/></svg>