<svg id="Layer_1" data-name="Layer 1" xmlns="http://www.w3.org/2000/svg" viewBox="0 0 2127.97 710.71"><path d="M45.43,299.4q0-95.25,95-95.25,95.26,0,95.26,95.25V362H162.29V299.4q0-24.69-21.6-24.91h-.45q-21.38,0-21.38,24.91v39.25q0,26.89,56.44,67.47,60.42,43,60.42,103.19V564q0,95.47-95,95.47Q45.43,659.25,45.43,564V501.37h73.43V564q0,24.91,21.83,24.92,21.6,0,21.6-24.92V514.6q0-29.33-56.44-69.9Q45.43,401.71,45.43,340Z"/><path d="M288.64,211H385q88.64.22,88.64,95.47V371.5q0,69.9-63.28,90.62Q395.13,467,366.69,467h-4.63V652.41H288.64Zm73.42,70.34V396.41h8.82c7.94,0,13.08-.43,15.43-1.32q13.89-5.5,13.89-23.59V306.45q0-25.12-21.6-25.13Z"/><path d="M519.93,211H692.8v70.34H593.36V396.41h85.55V467H593.36v115.1H692.8v70.34H519.93Z"/><path d="M739.1,652.41V211h73.42V582.07H912v70.34Z"/><path d="M949.45,652.41V211h73.42V582.07h99.45v70.34Z"/><path d="M1159.8,211h101.65q88.64.22,88.63,95.47V371.5q0,45-29.54,60.2,29.55,15.21,29.54,60.19v65.26q0,95-92.38,95.26h-97.9Zm73.42,70.34V396.41h14.12c7.93,0,13.08-.43,15.43-1.32q13.89-5.5,13.89-23.59V306.45q0-25.12-21.61-25.13Zm0,185.65v115.1h21.83q21.62,0,21.61-24.92V491.89q0-18.08-13.89-23.37Q1259,467,1247.34,467Z"/><path d="M1586.67,564q0,95.25-95.25,95.47-95,0-95-95.47V299.4q0-95.25,95-95.25,95.25,0,95.25,95.25ZM1513.25,299.4q0-24.69-21.61-24.91h-.44q-21.39,0-21.39,24.91V564q0,24.91,21.61,24.92,21.82,0,21.83-24.92Z"/><path d="M1825.47,564q0,95.25-95.26,95.47-95,0-95-95.47V299.4q0-95.25,95-95.25,95.25,0,95.26,95.25ZM1752,299.4q0-24.69-21.6-24.91H1730q-21.37,0-21.38,24.91V564q0,24.91,21.6,24.92,21.84,0,21.83-24.92Z"/><path d="M2002.74,431.7,2087,652.41h-78.5l-56.66-175.95v176h-73.42V211h73.42V386.27L2008.47,211H2087Z"/><path d="M118.9,156.82q0,24.3-36.78,24.36T45.43,156.82V86q0-24.3,36.69-24.3T118.9,86v15.57H93.33V86q0-7.79-11.12-7.84H82Q71,78.2,71,86v70.78q0,7.85,11.11,7.84t11.21-7.84V141.24H118.9Z"/><path d="M352.94,156.82q0,24.3-36.78,24.36t-36.69-24.36V86q0-24.3,36.69-24.3T352.94,86ZM327.36,86q0-7.79-11.11-7.84h-.18q-11,0-11,7.84v70.78q0,7.85,11.12,7.84t11.2-7.84Z"/><path d="M571.88,142.84l29.73-79.27h25.58V179.29H602.7V114.35l-21.87,64.94H563.48L541,114.35v64.94H516.21V63.57h25.58Z"/><path d="M847.94,142.84l29.73-79.27h25.58V179.29H878.76V114.35l-21.88,64.94H839.53L817,114.35v64.94H792.27V63.57h25.58Z"/><path d="M1139.63,138.24l8.31,41H1122.1l-5-24.54H1091L1086,179.29h-25.76l8.32-40.88,18.07-74.84h35.07Zm-25.85,0L1104,90.11l-9.76,48.13Z"/><path d="M1304.89,63.57h25.58l24.22,67.12V63.57h23.67V179.29h-25.57l-23.32-65v65h-24.58Z"/><path d="M1543.45,63.57h39.4q34.07.06,34.07,24.36V155q0,24.24-35.7,24.3h-37.77ZM1569,80v82.81h11.21q11.12,0,11.11-7.84V87.93q0-7.91-11.11-7.91Z"/><path d="M1780.19,63.57h66.33V80h-40.75v33.15h35.06v16.51h-35.06v33.15h40.75v16.46h-66.33Z"/><path d="M2007.09,63.57h37.23q34.07.06,34.07,24.36v17.4q0,15.27-20.15,20.11L2087,179.29h-28l-23-50.9-3.26.29v50.61h-25.57ZM2032.66,80v33.15h5.88a37.61,37.61,0,0,0,7.31-.47q7-1.83,7-7.37V87.93q0-7.91-11.11-7.91Z"/></svg>